<svg width="10" height="11" viewBox="0 0 10 11" fill="none" xmlns="http://www.w3.org/2000/svg">
<path fill-rule="evenodd" clip-rule="evenodd" d="M1.99467 0.170599C1.57734 -0.0600681 1.08734 -0.0547347 0.672668 0.173932L5.53267 4.65727L7.16534 3.0246L1.99467 0.170599Z" fill="#787686"/>
<path fill-rule="evenodd" clip-rule="evenodd" d="M0.186667 0.632629C0.0680001 0.82663 0 1.04863 0 1.28396V9.38131C0 9.60931 0.0620001 9.82664 0.174 10.0166L5.06134 5.1293L0.186667 0.632629Z" fill="#787686"/>
<path fill-rule="evenodd" clip-rule="evenodd" d="M9.32998 4.21926L7.77265 3.35992L6.02264 5.10926L8.16731 7.08728L9.33065 6.44526C9.74934 6.21326 9.99998 5.79726 9.99998 5.33193C9.99934 4.86659 9.74934 4.45059 9.32998 4.21926Z" fill="#787686"/>
<path fill-rule="evenodd" clip-rule="evenodd" d="M5.55135 5.5813L0.650696 10.482C0.863363 10.6033 1.09668 10.6673 1.33134 10.6673C1.55801 10.6673 1.78603 10.61 1.99468 10.4946L7.55268 7.42728L5.55135 5.5813Z" fill="#787686"/>
</svg>
