<svg width="10" height="12" viewBox="0 0 10 12" fill="none" xmlns="http://www.w3.org/2000/svg">
<path fill-rule="evenodd" clip-rule="evenodd" d="M7.19465 0C6.57048 0.0431709 5.84099 0.442684 5.41586 0.96293C5.02806 1.43488 4.70901 2.13586 4.8334 2.81708C5.51538 2.8383 6.22001 2.42928 6.62828 1.90025C7.01026 1.40781 7.29926 0.711222 7.19465 0Z" fill="#787686"/>
<path fill-rule="evenodd" clip-rule="evenodd" d="M9.66122 3.9278C9.06195 3.17633 8.21975 2.74023 7.42441 2.74023C6.3744 2.74023 5.93023 3.24292 5.20074 3.24292C4.44852 3.24292 3.87708 2.7417 2.96903 2.7417C2.07705 2.7417 1.12729 3.28682 0.525093 4.21902C-0.321495 5.53171 -0.176616 7.99979 1.19534 10.102C1.68632 10.8542 2.34193 11.7 3.19949 11.7073C3.96266 11.7147 4.17779 11.2178 5.21169 11.2127C6.2456 11.2068 6.4417 11.7139 7.20343 11.7059C8.06172 11.6993 8.75317 10.762 9.24417 10.0098C9.5961 9.4705 9.7271 9.19903 10 8.59025C8.01487 7.8344 7.69658 5.01146 9.66122 3.9278Z" fill="#787686"/>
</svg>
